<?xml version="1.0" encoding="UTF-8"?>
<!DOCTYPE svg PUBLIC "-//W3C//DTD SVG 1.1//EN" "http://www.w3.org/Graphics/SVG/1.1/DTD/svg11.dtd">
<!-- Creator: CorelDRAW X6 -->
<svg xmlns="http://www.w3.org/2000/svg" xml:space="preserve" width="100%" height="100%" version="1.1" style="shape-rendering:geometricPrecision; text-rendering:geometricPrecision; image-rendering:optimizeQuality; fill-rule:evenodd; clip-rule:evenodd"
viewBox="0 0 500 500"
 xmlns:xlink="http://www.w3.org/1999/xlink">
 <defs>
  <style type="text/css">
   <![CDATA[
    .fil0 {fill:#ffffff}
   ]]>
  </style>
 </defs>
 <g id="Layer_x0020_1">
  <metadata id="CorelCorpID_0Corel-Layer"/>
  <path class="fil0" d="M236 44c-52,107 -136,172 -149,252 -12,72 45,174 163,174 118,0 175,-102 163,-174 -13,-80 -97,-145 -149,-252 -4,-9 -9,-14 -14,-14 -5,0 -10,5 -14,14zm137 298c-5,22 -16,42 -31,57 -15,16 -34,28 -56,34 -7,2 -14,1 -20,-4 -7,-5 -9,-11 -9,-20 -1,-11 6,-20 17,-23 12,-4 24,-11 33,-20 9,-10 16,-22 19,-35 3,-12 13,-18 25,-18 7,0 13,3 18,9 4,6 6,13 4,20z"/>
 </g>
</svg>
